<?xml version="1.0" encoding="utf-8"?><!DOCTYPE svg PUBLIC "-//W3C//DTD SVG 1.1//EN" "http://www.w3.org/Graphics/SVG/1.1/DTD/svg11.dtd"><svg version="1.1" xmlns="http://www.w3.org/2000/svg" xmlns:xlink="http://www.w3.org/1999/xlink" x="0px" y="0px" width="600px" height="600px" viewBox="0 0 600 600" enable-background="new 0 0 600 600" xml:space="preserve"><path fill="none" stroke="#00FFFF" stroke-miterlimit="0" d="M410.125,578.636c11.067-3.747,22.112-7.469,33.184-11.212 c0.048-16.855,0.097-33.685,0.119-50.566c6.556-4.366,12.845-9.002,18.871-13.896c13.998,5.663,27.994,11.357,42.015,17.022 c7.635-8.837,15.271-17.673,22.903-26.508c-7.033-11.98-14.067-23.963-21.078-35.943c6.938-9.216,13.228-18.892,18.847-28.878 c13.758,1.755,27.489,3.505,41.271,5.229c5.092-10.466,10.229-20.981,15.37-31.476c-10.854-10.757-21.707-21.538-32.532-32.294 c2.735-9.938,4.896-20.018,6.455-30.227c14.5-5.931,29.051-11.83,43.601-17.789c-0.718-11.643-1.392-23.287-2.107-34.958 c-13.233-3.646-26.487-7.297-39.715-10.921c-1.104-11.382-2.955-22.735-5.569-34.022c11.142-8.546,22.327-17.071,33.469-25.614 c-3.724-11.046-7.44-22.114-11.188-33.183c-14.6-0.023-29.194-0.07-43.791-0.096c-5.211-10.25-11-19.997-17.287-29.22 c8.261-10.851,16.496-21.705,24.777-32.556c-6.529-9.674-13.063-19.352-19.568-29.048c-16.088,4.369-32.143,8.715-48.229,13.059 c-7.638-6.676-15.658-12.916-23.962-18.608c1.845-14.618,3.697-29.189,5.565-43.766c-10.489-5.138-20.98-10.275-31.475-15.391 c-9.941,10.015-19.904,20.026-29.843,30.035c-10.729-4.034-21.702-7.396-32.896-9.987c-1.771-13.639-3.504-27.271-5.276-40.911 C340.6,4.611,329.143,2.304,317.719,0c-7.974,13.686-15.938,27.37-23.913,41.056c-10.181,0.19-20.458,0.962-30.683,2.378 c-9.268-12.101-18.51-24.226-27.778-36.327c-11.067,3.749-22.111,7.445-33.205,11.189c0,13.781-0.049,27.563-0.098,41.319 c-6.288,2.518-12.533,5.279-18.676,8.331c-4.272,2.112-8.405,4.321-12.484,6.6c-11.093-8.425-22.162-16.874-33.229-25.304 c-9.697,6.507-19.376,13.038-29.077,19.567c3.893,14.309,7.757,28.617,11.646,42.926c-7.971,7.492-15.39,15.438-22.28,23.77 c-14.285-3.743-28.595-7.489-42.902-11.235c-6.436,9.748-12.868,19.494-19.305,29.245c9.315,12.003,18.605,24.006,27.896,35.986 c-4.654,9.867-8.712,20.021-12.121,30.395c-14.239,1.849-28.477,3.673-42.711,5.524c-2.307,11.451-4.611,22.9-6.918,34.357 c12.438,7.225,24.874,14.474,37.332,21.702c-0.86,11.307-0.98,22.712-0.356,34.11c-12.679,5.188-25.329,10.326-38.006,15.515 c0.693,11.644,1.393,23.313,2.089,34.953c15.844,4.373,31.689,8.721,47.536,13.063c3.023,9.582,6.626,19.018,10.854,28.376 c-9.078,11.912-18.154,23.816-27.228,35.726c6.529,9.679,13.037,19.381,19.566,29.057c13.372-3.624,26.745-7.229,40.118-10.877 c7.156,9.169,14.886,17.743,23.072,25.736c-5.208,12.842-10.396,25.667-15.604,38.51c8.831,7.633,17.667,15.271,26.502,22.905 c13.158-7.711,26.27-15.415,39.398-23.12c8.932,5.208,18.127,9.868,27.587,13.973c2.02,15.628,4.035,31.234,6.052,46.867 c11.45,2.302,22.9,4.604,34.33,6.938c6.916-11.907,13.83-23.794,20.746-35.701c11.308,1.896,22.76,3.051,34.285,3.413 c5.276,13.029,10.586,26.07,15.893,39.081c11.668-0.693,23.338-1.395,34.979-2.063c3.892-14.214,7.808-28.405,11.688-42.59 c10.924-2.357,21.803-5.428,32.51-9.244C393.536,556.955,401.82,567.78,410.125,578.636z"/><path fill="none" stroke="#00FFFF" stroke-miterlimit="0" d="M407.448,571.907c10.804-3.646,21.585-7.299,32.39-10.924 c0.046-16.447,0.095-32.916,0.146-49.361c6.383-4.275,12.529-8.81,18.39-13.565c13.685,5.522,27.321,11.07,40.983,16.593 c7.466-8.618,14.905-17.236,22.349-25.858c-6.84-11.666-13.706-23.387-20.553-35.076c6.773-9.002,12.92-18.413,18.396-28.162 c13.419,1.682,26.842,3.41,40.261,5.113c4.997-10.252,9.986-20.479,15.007-30.732c-10.591-10.488-21.173-21.004-31.737-31.496 c2.661-9.697,4.775-19.567,6.288-29.506c14.169-5.785,28.354-11.572,42.545-17.361c-0.673-11.379-1.369-22.759-2.04-34.112 c-12.918-3.554-25.859-7.106-38.771-10.661c-1.063-11.091-2.857-22.184-5.429-33.202c10.875-8.33,21.774-16.661,32.651-24.972 c-3.651-10.804-7.253-21.605-10.901-32.386c-14.26-0.049-28.495-0.071-42.735-0.12c-5.086-9.987-10.73-19.496-16.897-28.499 c8.063-10.588,16.134-21.179,24.2-31.763c-6.366-9.463-12.729-18.921-19.114-28.356c-15.677,4.251-31.355,8.525-47.052,12.751 c-7.474-6.532-15.273-12.603-23.39-18.178c1.825-14.235,3.625-28.47,5.449-42.707c-10.253-4.996-20.479-9.989-30.705-15.008 c-9.726,9.771-19.427,19.544-29.12,29.316c-10.469-3.94-21.202-7.204-32.104-9.749c-1.729-13.3-3.435-26.602-5.162-39.902 c-11.166-2.257-22.353-4.515-33.518-6.771c-7.777,13.349-15.534,26.722-23.312,40.093c-9.961,0.146-19.952,0.913-29.938,2.283 c-9.055-11.815-18.082-23.628-27.11-35.44c-10.801,3.628-21.606,7.276-32.408,10.926c-0.025,13.442-0.051,26.865-0.098,40.312 c-6.146,2.448-12.197,5.159-18.243,8.137c-4.132,2.064-8.19,4.179-12.152,6.435c-10.825-8.233-21.655-16.47-32.458-24.68 c-9.438,6.338-18.896,12.701-28.354,19.063c3.792,13.974,7.56,27.947,11.354,41.918c-7.778,7.3-15.005,15.055-21.726,23.193 c-13.974-3.649-27.925-7.3-41.87-10.948c-6.27,9.506-12.56,19.018-18.821,28.523c9.073,11.689,18.147,23.408,27.222,35.098 c-4.563,9.63-8.521,19.544-11.859,29.652c-13.875,1.801-27.753,3.602-41.658,5.401c-2.254,11.165-4.485,22.353-6.745,33.519 c12.125,7.059,24.3,14.139,36.42,21.2c-0.836,11.017-0.983,22.157-0.355,33.297c-12.344,5.043-24.708,10.082-37.068,15.104 c0.67,11.377,1.342,22.757,2.016,34.139c15.461,4.25,30.92,8.498,46.386,12.748c2.976,9.313,6.479,18.559,10.586,27.66 c-8.859,11.643-17.694,23.266-26.53,34.857c6.337,9.46,12.726,18.919,19.062,28.376c13.062-3.525,26.121-7.079,39.184-10.609 c6.988,8.955,14.5,17.313,22.497,25.113c-5.089,12.509-10.16,25.04-15.225,37.574c8.621,7.441,17.241,14.886,25.86,22.331 c12.796-7.496,25.614-15.033,38.436-22.552c8.717,5.094,17.697,9.651,26.917,13.64c1.992,15.244,3.962,30.493,5.93,45.736 c11.161,2.26,22.326,4.514,33.493,6.746c6.746-11.594,13.514-23.19,20.237-34.813c11.042,1.851,22.184,2.958,33.418,3.343 c5.186,12.699,10.375,25.424,15.559,38.128c11.382-0.675,22.736-1.349,34.115-2.021c3.815-13.852,7.612-27.702,11.431-41.558 c10.632-2.28,21.246-5.282,31.714-9.004C391.288,550.733,399.358,561.318,407.448,571.907z"/><path fill="none" stroke="#00FFFF" stroke-miterlimit="0" d="M499.055,201.697C444.768,91.76,311.615,46.648,201.704,100.956 C91.768,155.24,46.659,288.367,100.941,398.327c54.309,109.91,187.436,155.024,297.369,100.718 C508.247,444.762,553.337,311.631,499.055,201.697z"/><path fill="none" stroke="#00FFFF" stroke-miterlimit="0" d="M493.693,204.307C440.881,97.349,311.327,53.459,204.347,106.282 c-107.009,52.842-150.896,182.415-98.056,289.4c52.849,106.962,182.422,150.871,289.381,98.027 C502.65,440.863,546.564,311.316,493.693,204.307z"/><path fill="none" stroke="#00FFFF" stroke-miterlimit="0" d="M485.029,208.605C434.563,106.427,310.8,64.505,208.619,114.972 c-102.205,50.468-144.124,174.23-93.635,276.409c50.468,102.188,174.208,144.104,276.411,93.662 C493.575,434.554,535.496,310.813,485.029,208.605z"/><path fill="none" stroke="#00FFFF" stroke-miterlimit="0" d="M479.049,211.567c-48.83-98.896-168.587-139.469-267.501-90.637 c-98.894,48.837-139.442,168.638-90.608,267.505c48.835,98.892,168.613,139.469,267.503,90.631 C487.33,430.238,527.908,310.456,479.049,211.567z"/><path fill="none" stroke="#00FFFF" stroke-miterlimit="0" d="M474.245,213.938c-47.534-96.228-164.075-135.72-260.302-88.208 c-96.228,47.537-135.724,164.1-88.208,260.352c47.538,96.224,164.099,135.698,260.327,88.183 C482.313,426.727,521.781,310.189,474.245,213.938z"/><path fill="none" stroke="#00FFFF" stroke-miterlimit="0" d="M412.363,244.499c-30.638-62.039-105.786-87.511-167.87-56.853 c-62.04,30.633-87.49,105.805-56.853,167.846c30.658,62.061,105.831,87.508,167.867,56.873 C417.548,381.705,442.993,306.563,412.363,244.499z"/><path fill="none" stroke="#00FFFF" stroke-miterlimit="0" d="M410.261,330.834c17.021-60.911-18.561-124.073-79.445-141.097 c-60.886-16.999-124.054,18.533-141.073,79.444c-17.02,60.883,18.534,124.051,79.421,141.075 C330.046,427.274,393.238,391.719,410.261,330.834z"/><path fill="none" stroke="#00FFFF" stroke-miterlimit="0" d="M359.025,322.784c-12.558,32.577-49.196,48.784-81.773,36.229 c-32.603-12.582-48.833-49.195-36.276-81.774c12.605-32.602,49.219-48.808,81.822-36.253 C355.351,253.568,371.581,290.183,359.025,322.784z"/><path fill="none" stroke="#00FFFF" stroke-miterlimit="0" d="M349.082,318.936c-10.469,27.104-40.909,40.598-68.016,30.129 c-27.082-10.442-40.599-40.91-30.152-68.018c10.465-27.105,40.909-40.575,68.035-30.106 C346.032,261.386,359.528,291.826,349.082,318.936z"/><path fill="none" stroke="#00FFFF" stroke-miterlimit="0" d="M342.49,281.191c10.395,23.458-0.217,50.897-23.646,61.292 c-23.483,10.398-50.946-0.19-61.322-23.672c-10.416-23.457,0.194-50.897,23.676-61.297 C304.629,247.12,332.098,257.71,342.49,281.191z"/><rect x="290.5" y="255.5" fill="none" stroke="#00FFFF" stroke-miterlimit="0" width="18" height="88"/><path fill="none" stroke="#00FFFF" stroke-miterlimit="0" d="M340.433,280.028c-11.023-22.325-38.065-31.491-60.408-20.458 c-22.325,11.023-31.483,38.074-20.458,60.399c11.033,22.331,38.083,31.488,60.407,20.466 C342.299,329.402,351.455,302.362,340.433,280.028z"/><path fill="none" stroke="#00FFFF" stroke-miterlimit="0" d="M339.677,311.096c6.125-21.918-6.679-44.648-28.589-50.773 c-21.91-6.117-44.641,6.669-50.765,28.588c-6.125,21.909,6.669,44.641,28.58,50.767C310.812,345.8,333.551,333.005,339.677,311.096z"/></svg>