<?xml version="1.0" encoding="utf-8"?><svg version="1.2" xmlns="http://www.w3.org/2000/svg" xmlns:xlink="http://www.w3.org/1999/xlink" x="0px" y="0px" width="370px" height="60px" viewBox="0 0 370 60" overflow="scroll" xml:space="preserve"><g><path fill="#FBB03B" d="M0,43.521v-3.454c1.082,0.929,2.395,1.665,3.94,2.206c1.545,0.542,2.877,0.812,3.997,0.812c5.022,0,7.532-2.049,7.532-6.15c0-1.431-0.55-2.649-1.651-3.656c-1.101-1.004-2.897-2.039-5.388-3.104c-3.052-1.334-5.201-2.718-6.446-4.149c-1.246-1.431-1.869-3.171-1.869-5.223c0-2.611,0.995-4.719,2.983-6.325c1.989-1.605,4.452-2.408,7.387-2.408c2.743,0,5.099,0.561,7.069,1.683v3.278c-2.375-1.547-4.837-2.321-7.387-2.321c-2.105,0-3.805,0.547-5.099,1.64c-1.294,1.093-1.941,2.519-1.941,4.28c0,1.528,0.406,2.766,1.217,3.713s2.607,2.041,5.388,3.279c3.341,1.509,5.634,2.901,6.88,4.178c1.247,1.275,1.869,2.988,1.869,5.135c0,2.535-0.951,4.634-2.854,6.296c-1.903,1.665-4.534,2.495-7.895,2.495C4.645,45.726,2.066,44.99,0,43.521z"/><path fill="#FBB03B" d="M66.717,44.942V25.648c0-4.042-0.633-6.876-1.897-8.501s-3.259-2.438-5.982-2.438c-2.531,0-4.712,1.083-6.547,3.25c-1.835,2.166-2.752,4.894-2.752,8.181v18.801H46.67V25.417c0-7.137-2.713-10.707-8.141-10.707c-2.607,0-4.78,1.093-6.518,3.279c-1.739,2.186-2.607,5.009-2.607,8.472v18.481h-2.868V12.854h2.868v5.338h0.145c2.221-4.081,5.485-6.122,9.792-6.122c2.336,0,4.335,0.672,5.997,2.016c1.661,1.345,2.781,3.119,3.361,5.324C49.702,17.089,51.136,15.286,53,14c1.863-1.287,3.886-1.929,6.069-1.929c7.011,0,10.516,4.342,10.516,13.026v19.846H66.717z"/><path fill="#FBB03B" d="M98.352,44.942V38.53h-0.116c-1.023,2.187-2.51,3.933-4.461,5.236c-1.951,1.307-4.114,1.959-6.489,1.959c-3.052,0-5.466-0.855-7.242-2.567c-1.777-1.712-2.666-3.873-2.666-6.484c0-5.609,3.708-8.995,11.125-10.155l9.85-1.48c0-6.885-2.588-10.329-7.764-10.329c-3.516,0-6.944,1.422-10.284,4.265v-3.482c1.178-0.947,2.785-1.754,4.823-2.422c2.038-0.668,3.955-1.001,5.75-1.001c3.303,0,5.852,1.025,7.648,3.075c1.796,2.05,2.694,5.029,2.694,8.936v20.861H98.352z M89.545,28.957c-3.36,0.483-5.722,1.262-7.083,2.335c-1.361,1.073-2.042,2.828-2.042,5.267c0,1.895,0.633,3.456,1.897,4.685s3.027,1.842,5.287,1.842c3.071,0,5.63-1.141,7.677-3.423c2.047-2.281,3.071-5.232,3.071-8.849v-3.134L89.545,28.957z"/><path fill="#FBB03B" d="M125.989,15.871c-0.966-0.697-2.096-1.044-3.389-1.044c-2.531,0-4.65,1.306-6.359,3.917c-1.708,2.611-2.563,6.325-2.563,11.142v15.057h-2.81V12.854h2.81v7.108h0.145c0.715-2.438,1.869-4.337,3.462-5.701c1.593-1.363,3.433-2.045,5.519-2.045c1.178,0,2.24,0.193,3.187,0.581V15.871z"/><path fill="#FBB03B" d="M147.513,44.508c-1.506,0.715-2.917,1.073-4.229,1.073c-4.732,0-7.098-2.844-7.098-8.53V15.493h-5.765v-2.64h5.765V4.526c0.444-0.174,0.917-0.338,1.42-0.493s0.984-0.319,1.448-0.494v9.313h8.459v2.64h-8.459v21.181c0,2.205,0.348,3.806,1.042,4.801c0.696,0.997,1.883,1.495,3.563,1.495c1.178,0,2.463-0.387,3.853-1.16V44.508z"/><path fill="#FBB03B" d="M179.496,7.834h-16.02v11.547h14.745v7.833h-14.745v17.728h-9.561V0h25.581V7.834z"/><path fill="#FBB03B" d="M184.913,14.797c1.448-0.813,3.385-1.47,5.808-1.973c2.424-0.502,4.496-0.754,6.214-0.754c8.962,0,13.443,4.497,13.443,13.491v19.381h-8.895v-4.672h-0.115c-2.183,3.637-5.379,5.455-9.589,5.455c-3.032,0-5.46-0.864-7.286-2.597c-1.826-1.729-2.738-4.086-2.738-7.064c0-6.151,3.66-9.729,10.979-10.735l8.807-1.189c0-3.732-1.94-5.6-5.823-5.6c-3.823,0-7.425,1.161-10.805,3.481V14.797z M195.487,30.407c-3.38,0.444-5.069,1.973-5.069,4.584c0,1.198,0.41,2.166,1.23,2.901c0.821,0.735,1.927,1.103,3.317,1.103c1.912,0,3.486-0.678,4.722-2.031c1.236-1.354,1.854-3.037,1.854-5.049v-2.292L195.487,30.407z"/><path fill="#FBB03B" d="M242.418,43.753c-2.241,1.315-5.429,1.973-9.56,1.973c-4.887,0-8.837-1.489-11.85-4.467c-3.013-2.979-4.519-6.839-4.519-11.577c0-5.455,1.622-9.753,4.867-12.897c3.244-3.143,7.57-4.714,12.978-4.714c3.65,0,6.354,0.503,8.112,1.509v8.037c-2.145-1.567-4.48-2.35-7.011-2.35c-2.859,0-5.152,0.87-6.881,2.611c-1.729,1.74-2.593,4.129-2.593,7.167c0,2.939,0.82,5.256,2.463,6.948c1.642,1.692,3.871,2.538,6.691,2.538c2.491,0,4.926-0.793,7.301-2.378V43.753z"/><path fill="#FBB03B" d="M267.91,44.565c-1.409,0.774-3.543,1.16-6.401,1.16c-6.799,0-10.197-3.578-10.197-10.734V19.846h-5.273v-6.992h5.273v-7.05l9.299-2.67v9.72h7.3v6.992h-7.3v13.521c0,3.424,1.353,5.135,4.056,5.135c1.043,0,2.124-0.309,3.244-0.928V44.565z"/><path fill="#FBB03B" d="M271.445,29.044c0-5.281,1.579-9.431,4.737-12.447c3.156-3.018,7.4-4.526,12.732-4.526c5.155,0,9.248,1.484,12.282,4.453c3.031,2.969,4.548,6.959,4.548,11.968c0,5.263-1.556,9.449-4.664,12.564c-3.109,3.114-7.32,4.67-12.632,4.67c-5.214,0-9.352-1.493-12.412-4.482C272.976,38.255,271.445,34.188,271.445,29.044z M280.918,28.927c0,6.403,2.607,9.603,7.822,9.603c5.002,0,7.503-3.288,7.503-9.864c0-6.267-2.521-9.4-7.562-9.4c-2.452,0-4.359,0.841-5.721,2.524C281.599,23.472,280.918,25.852,280.918,28.927z"/><path fill="#FBB03B" d="M332.773,21.354c-1.139-0.658-2.52-0.986-4.143-0.986c-2.125,0-3.809,0.812-5.055,2.437c-1.246,1.625-1.868,3.859-1.868,6.703v15.435h-9.358V12.854h9.358v6.034h0.115c1.544-4.391,4.354-6.586,8.431-6.586c1.101,0,1.94,0.126,2.52,0.377V21.354z"/><path fill="#FBB03B" d="M370,12.854l-13.211,34.961C353.719,55.938,349.122,60,343.001,60c-2.415,0-4.288-0.251-5.62-0.754v-7.515c1.255,0.716,2.635,1.073,4.142,1.073c2.549,0,4.345-1.237,5.388-3.713l1.768-4.207l-12.949-32.031H346.1l6.257,20.106c0.387,1.219,0.667,2.582,0.841,4.091h0.174c0.136-1.024,0.453-2.369,0.956-4.032l6.402-20.165H370z"/></g></svg>