<?xml version="1.0" encoding="utf-8"?><!DOCTYPE svg PUBLIC "-//W3C//DTD SVG 1.1//EN" "http://www.w3.org/Graphics/SVG/1.1/DTD/svg11.dtd"><svg version="1.1" xmlns="http://www.w3.org/2000/svg" xmlns:xlink="http://www.w3.org/1999/xlink" x="0px" y="0px" width="240px" height="50px" viewBox="0 0 240 50" enable-background="new 0 0 240 50" xml:space="preserve"><g><g><g><g><polygon fill="#737373" points="67.913,29.725 63.14,33.102 55.136,11.575 58.524,6.177 "/></g><g><polygon fill="#737373" points="58.524,6.177 55.136,11.575 13.435,17.874 12.041,12.468 "/></g><g><polygon fill="#999999" points="12.041,12.468 13.435,17.874 17.628,43.357 16.646,40.885 "/></g><g><polygon fill="#737373" points="69.347,30.574 64.409,33.861 16.612,44.797 15.475,42.512 "/></g><g><path fill="#CECECE" d="M10.654,11.619l48.453-6.416l10.239,25.371L15.475,42.512L10.654,11.619z M67.913,29.725L58.524,6.177l-46.483,6.291l4.605,28.417L67.913,29.725"/></g></g></g><g><g><g><polygon fill="#797979" points="59.412,12.622 55.822,17.542 46.515,19.126 49.125,14.229 "/></g><g><polygon fill="#797979" points="49.125,14.229 46.515,19.126 45.207,15.02 47.61,9.753 "/></g><g><polygon fill="#D8D8D8" points="57.73,8.321 59.412,12.622 49.125,14.229 47.61,9.753 "/></g></g><g><g><polygon fill="#797979" points="62.301,20.013 58.291,24.309 48.753,26.15 51.733,21.934 "/></g><g><polygon fill="#797979" points="51.733,21.934 48.753,26.15 47.358,21.775 50.106,17.127 "/></g><g><polygon fill="#D8D8D8" points="60.499,15.405 62.301,20.013 51.733,21.934 50.106,17.127 "/></g></g><g><g><polygon fill="#797979" points="65.405,27.953 60.923,31.523 51.145,33.656 54.544,30.23 "/></g><g><polygon fill="#797979" points="54.544,30.23 51.145,33.656 49.653,28.979 52.789,25.052 "/></g><g><polygon fill="#D8D8D8" points="63.468,22.999 65.405,27.953 54.544,30.23 52.789,25.052 "/></g></g><g><g><polygon fill="#797979" points="44.353,14.974 42.218,19.856 32.07,21.582 33.021,16.743 "/></g><g><polygon fill="#797979" points="33.021,16.743 32.07,21.582 30.994,17.247 31.793,11.99 "/></g><g><polygon fill="#D8D8D8" points="42.919,10.416 44.353,14.974 33.021,16.743 31.793,11.99 "/></g></g><g><g><polygon fill="#797979" points="46.823,22.826 44.345,27.003 33.916,29.018 35.141,24.949 "/></g><g><polygon fill="#797979" points="35.141,24.949 33.916,29.018 32.766,24.384 33.817,19.826 "/></g><g><polygon fill="#D8D8D8" points="45.281,17.927 46.823,22.826 35.141,24.949 33.817,19.826 "/></g></g><g><g><polygon fill="#797979" points="49.485,31.291 46.617,34.645 35.892,36.984 37.433,33.82 "/></g><g><polygon fill="#797979" points="37.433,33.82 35.892,36.984 34.659,32.018 36,28.277 "/></g><g><polygon fill="#D8D8D8" points="47.823,26.006 49.485,31.291 37.433,33.82 36,28.277 "/></g></g><g><g><polygon fill="#797979" points="27.754,17.565 27.38,22.38 16.274,24.269 15.212,19.524 "/></g><g><polygon fill="#D8D8D8" points="26.628,12.722 27.754,17.565 15.212,19.524 14.343,14.46 "/></g></g><g><g><polygon fill="#797979" points="29.7,25.938 29.087,29.951 17.639,32.162 16.718,28.296 "/></g><g><polygon fill="#D8D8D8" points="28.485,20.711 29.7,25.938 16.718,28.296 15.778,22.815 "/></g></g><g><g><polygon fill="#797979" points="31.807,34.999 30.919,38.07 19.106,40.648 18.354,37.82 "/></g><g><polygon fill="#D8D8D8" points="30.49,29.337 31.807,34.999 18.354,37.82 17.332,31.865 "/></g></g></g></g><g><rect x="87" y="4" fill="#B3B3B3" width="14" height="20"/><rect x="104" y="4" fill="#B3B3B3" width="14" height="20"/><rect x="122" y="4" fill="#B3B3B3" width="13" height="20"/><rect x="139" y="4" fill="#B3B3B3" width="13" height="20"/><rect x="87" y="26" fill="#B3B3B3" width="14" height="20"/><rect x="104" y="26" fill="#B3B3B3" width="14" height="20"/><rect x="122" y="26" fill="#B3B3B3" width="13" height="20"/><rect x="139" y="26" fill="#B3B3B3" width="13" height="20"/></g><polyline fill="none" stroke="#B3B3B3" stroke-miterlimit="10" points="165.846,4.905 165.846,44.833 232.594,44.833 "/><polygon fill="#B3B3B3" points="171.896,21.248 171.896,38.791 228.358,38.791 218.881,16.811 206.177,27.7 185.205,7.737 "/></svg>